<?xml version="1.0" encoding="UTF-8" standalone="no"?>
<svg
   xmlns:dc="http://purl.org/dc/elements/1.1/"
   xmlns:cc="http://creativecommons.org/ns#"
   xmlns:rdf="http://www.w3.org/1999/02/22-rdf-syntax-ns#"
   xmlns:svg="http://www.w3.org/2000/svg"
   xmlns="http://www.w3.org/2000/svg"
   viewBox="0 0 645.33331 192"
   height="192"
   width="645.33331"
   xml:space="preserve"
   id="svg2"
   version="1.1"><metadata
     id="metadata8"><rdf:RDF><cc:Work
         rdf:about=""><dc:format>image/svg+xml</dc:format><dc:type
           rdf:resource="http://purl.org/dc/dcmitype/StillImage" /></cc:Work></rdf:RDF></metadata><defs
     id="defs6" /><g
     transform="matrix(1.3333333,0,0,-1.3333333,0,192)"
     id="g10"><g
       transform="scale(0.1)"
       id="g12"><path
         id="path14"
         style="fill:#b2b1b1;fill-opacity:1;fill-rule:nonzero;stroke:none"
         d="M 4676.86,0 H 172.594 C 78.9883,0 0,76.9609 0,170.5 V 1266.91 C 0,1360.45 78.9883,1440 172.594,1440 H 4676.86 c 93.54,0 163.14,-79.55 163.14,-173.09 V 170.5 C 4840,76.9609 4768.03,0 4674.5,0 h 2.36" /><path
         id="path16"
         style="fill:#040606;fill-opacity:1;fill-rule:nonzero;stroke:none"
         d="m 4814.53,170.461 c 0,-75.9727 -61.52,-137.5001 -137.63,-137.5001 H 172.594 C 96.5195,32.9609 34.7813,94.4883 34.7813,170.461 V 1266.93 c 0,75.93 61.7382,137.67 137.8127,137.67 H 4676.86 c 76.15,0 137.64,-61.74 137.64,-137.67 V 170.461 h 0.03" /><path
         id="path18"
         style="fill:#ffffff;fill-opacity:1;fill-rule:nonzero;stroke:none"
         d="m 1084.41,726.328 c -1.06,115.695 94.72,171.996 99.11,174.629 -54.24,79.09 -138.33,89.906 -167.86,90.746 -70.629,7.414 -139.094,-42.262 -175.086,-42.262 -36.683,0 -92.094,41.528 -151.765,40.297 C 612,988.547 540.109,944.074 500.688,875.012 419.352,734.184 480.02,527.215 557.938,413.379 c 38.984,-55.738 84.542,-118 144.16,-115.797 58.336,2.418 80.125,37.199 150.539,37.199 69.765,0 90.207,-37.199 151.033,-35.793 62.6,1.012 102.04,55.992 139.65,112.25 45.05,63.914 63.14,126.848 63.86,130.071 -1.45,0.492 -121.58,46.312 -122.77,185.019" /><path
         id="path20"
         style="fill:#ffffff;fill-opacity:1;fill-rule:nonzero;stroke:none"
         d="m 969.52,1066.57 c 31.36,39.25 52.83,92.62 46.87,146.81 -45.413,-2.02 -102.21,-31.4 -134.898,-69.81 -28.926,-33.81 -54.781,-89.25 -48.101,-141.37 51.007,-3.782 103.386,25.74 136.129,64.37" /><path
         id="path22"
         style="fill:#ffffff;fill-opacity:1;fill-rule:nonzero;stroke:none"
         d="m 1789.03,504.777 -40.41,124.739 c -4.26,12.761 -12.29,42.769 -24.1,90.015 h -1.42 c -4.72,-20.34 -12.29,-50.328 -22.68,-90.015 l -39.69,-124.739 z m 139.63,-199.199 h -81.51 l -44.66,140.34 h -155.22 l -42.54,-140.34 h -79.38 l 153.8,477.738 h 94.99 l 154.52,-477.738" /><path
         id="path24"
         style="fill:#ffffff;fill-opacity:1;fill-rule:nonzero;stroke:none"
         d="m 2246.2,479.258 c 0,33.515 -7.55,61.176 -22.68,82.914 -16.55,22.68 -38.76,34.039 -66.63,34.039 -18.89,0 -36.04,-6.313 -51.38,-18.789 -15.37,-12.555 -25.41,-28.961 -30.13,-49.293 -2.37,-9.469 -3.54,-17.25 -3.54,-23.352 v -57.425 c 0,-25.063 7.68,-46.204 23.03,-63.454 15.36,-17.25 35.33,-25.878 59.9,-25.878 28.82,0 51.27,11.121 67.33,33.312 16.06,22.227 24.1,51.531 24.1,87.926 z m 77.97,2.805 c 0,-58.583 -15.83,-104.891 -47.48,-138.903 -28.37,-30.262 -63.57,-45.371 -105.62,-45.371 -45.36,0 -77.97,16.313 -97.81,48.91 h -1.42 V 165.238 h -76.55 v 371.407 c 0,36.847 -0.96,74.64 -2.84,113.414 h 67.33 l 4.26,-54.582 h 1.42 c 25.52,41.121 64.26,61.668 116.24,61.668 40.65,0 74.55,-16.059 101.72,-48.172 27.17,-32.184 40.75,-74.465 40.75,-126.91" /><path
         id="path26"
         style="fill:#ffffff;fill-opacity:1;fill-rule:nonzero;stroke:none"
         d="m 2642.43,479.258 c 0,33.515 -7.57,61.176 -22.72,82.914 -16.54,22.68 -38.7,34.039 -66.61,34.039 -18.93,0 -36.04,-6.313 -51.39,-18.789 -15.36,-12.555 -25.37,-28.961 -30.1,-49.293 -2.35,-9.469 -3.54,-17.25 -3.54,-23.352 v -57.425 c 0,-25.063 7.68,-46.204 22.98,-63.454 15.36,-17.25 35.34,-25.878 59.95,-25.878 28.82,0 51.25,11.121 67.31,33.312 16.06,22.227 24.12,51.531 24.12,87.926 z m 77.97,2.805 c 0,-58.583 -15.85,-104.891 -47.54,-138.903 -28.33,-30.262 -63.52,-45.371 -105.59,-45.371 -45.37,0 -77.97,16.313 -97.8,48.91 h -1.4 V 165.238 h -76.55 v 371.407 c 0,36.847 -0.97,74.64 -2.84,113.414 h 67.33 l 4.26,-54.582 h 1.42 c 25.5,41.121 64.21,61.668 116.24,61.668 40.59,0 74.53,-16.059 101.73,-48.172 27.14,-32.184 40.74,-74.465 40.74,-126.91" /><path
         id="path28"
         style="fill:#ffffff;fill-opacity:1;fill-rule:nonzero;stroke:none"
         d="m 3163.4,439.531 c 0,-40.633 -14.1,-73.691 -42.42,-99.211 -31.14,-27.91 -74.47,-41.832 -130.14,-41.832 -51.39,0 -92.63,9.934 -123.83,29.774 l 17.74,63.808 c 33.59,-20.34 70.47,-30.5 110.65,-30.5 28.82,0 51.25,6.52 67.38,19.52 16.06,13.012 24.05,30.43 24.05,52.199 0,19.391 -6.59,35.731 -19.84,48.984 -13.19,13.25 -35.2,25.555 -65.91,36.95 -83.65,31.203 -125.44,76.882 -125.44,137.007 0,39.266 14.65,71.465 43.96,96.551 29.24,25.086 68.22,37.637 116.96,37.637 43.47,0 79.58,-7.574 108.4,-22.688 l -19.15,-62.382 c -26.92,14.636 -57.35,21.98 -91.43,21.98 -26.92,0 -47.96,-6.625 -63.03,-19.859 -12.76,-11.817 -19.14,-26.207 -19.14,-43.246 0,-18.895 7.29,-34.496 21.94,-46.766 12.76,-11.359 35.9,-23.629 69.49,-36.883 41.09,-16.547 71.31,-35.902 90.73,-58.09 19.35,-22.23 29.03,-49.89 29.03,-82.953" /><path
         id="path30"
         style="fill:#ffffff;fill-opacity:1;fill-rule:nonzero;stroke:none"
         d="M 3416.45,592.637 H 3332.1 V 425.371 c 0,-42.531 14.86,-63.801 44.66,-63.801 13.67,0 25.03,1.192 34.01,3.539 l 2.1,-58.129 c -15.07,-5.648 -34.92,-8.492 -59.53,-8.492 -30.22,0 -53.85,9.231 -70.88,27.633 -16.97,18.438 -25.53,49.399 -25.53,92.867 v 173.649 h -50.27 v 57.422 h 50.27 v 63.089 l 75.17,22.684 v -85.773 h 84.35 v -57.422" /><path
         id="path32"
         style="fill:#ffffff;fill-opacity:1;fill-rule:nonzero;stroke:none"
         d="m 3717.67,478.168 c 0,31.766 -6.8,59.008 -20.54,81.758 -16.06,27.484 -38.99,41.226 -68.72,41.226 -30.78,0 -54.13,-13.742 -70.19,-41.226 -13.74,-22.75 -20.54,-50.449 -20.54,-83.192 0,-31.765 6.8,-59.004 20.54,-81.722 16.55,-27.481 39.69,-41.231 69.49,-41.231 29.24,0 52.17,13.989 68.71,41.93 14.17,23.211 21.25,50.73 21.25,82.457 z m 79.44,2.488 c 0,-52.937 -15.15,-96.406 -45.37,-130.418 -31.69,-34.988 -73.76,-52.449 -126.21,-52.449 -50.55,0 -90.8,16.762 -120.81,50.313 -30.01,33.546 -45.01,75.867 -45.01,126.875 0,53.394 15.43,97.113 46.41,131.121 30.93,34.039 72.65,51.047 125.09,51.047 50.56,0 91.22,-16.758 121.94,-50.348 29.31,-32.606 43.96,-74.637 43.96,-126.141" /><path
         id="path34"
         style="fill:#ffffff;fill-opacity:1;fill-rule:nonzero;stroke:none"
         d="m 4045.88,582.75 c -7.57,1.402 -15.63,2.102 -24.12,2.102 -26.92,0 -47.75,-10.168 -62.4,-30.5 -12.76,-17.95 -19.14,-40.633 -19.14,-68.016 V 305.578 h -76.5 l 0.7,236.012 c 0,39.723 -0.98,75.867 -2.87,108.469 h 66.68 l 2.8,-65.907 h 2.11 c 8.06,22.645 20.82,40.875 38.28,54.547 17.04,12.309 35.48,18.446 55.32,18.446 7.08,0 13.46,-0.493 19.14,-1.407 V 582.75" /><path
         id="path36"
         style="fill:#ffffff;fill-opacity:1;fill-rule:nonzero;stroke:none"
         d="m 4315.2,513.965 c 0.49,22.68 -4.49,42.277 -14.86,58.828 -13.26,21.277 -33.59,31.902 -61,31.902 -25.04,0 -45.37,-10.375 -60.94,-31.203 -12.76,-16.547 -20.33,-36.39 -22.65,-59.527 z m 72.99,-19.848 c 0,-13.703 -0.91,-25.273 -2.8,-34.707 h -229.64 c 0.92,-34.039 11.99,-60.051 33.31,-78 19.35,-16.058 44.38,-24.09 75.1,-24.09 34,0 64.99,5.442 92.9,16.309 l 11.99,-53.149 c -32.61,-14.199 -71.1,-21.281 -115.48,-21.281 -53.43,0 -95.36,15.699 -125.86,47.153 -30.43,31.41 -45.72,73.589 -45.72,126.523 0,51.957 14.17,95.219 42.56,129.715 29.73,36.848 69.91,55.254 120.47,55.254 49.64,0 87.22,-18.406 112.74,-55.254 20.26,-29.309 30.43,-65.488 30.43,-108.473" /><path
         id="path38"
         style="fill:#ffffff;fill-opacity:1;fill-rule:nonzero;stroke:none"
         d="m 1724.03,1076.19 c 0,27.4 -7.26,48.4 -21.77,63.04 -14.52,14.62 -35.69,21.93 -63.56,21.93 -11.85,0 -21.95,-0.81 -30.3,-2.44 V 983.219 c 4.63,-0.703 13.12,-1.051 25.42,-1.051 28.79,0 51.01,8.008 66.69,24.032 15.67,16.02 23.52,39.35 23.52,69.99 z m 39.68,1.05 c 0,-42.26 -12.65,-74.06 -37.96,-95.424 -23.46,-19.718 -56.76,-29.589 -99.92,-29.589 -21.38,0 -39.72,0.929 -55.04,2.785 v 230.878 c 19.98,3.24 41.54,4.87 64.79,4.87 41.08,0 72.08,-8.94 92.97,-26.82 23.42,-20.19 35.16,-49.09 35.16,-86.7" /><path
         id="path40"
         style="fill:#ffffff;fill-opacity:1;fill-rule:nonzero;stroke:none"
         d="m 1935.01,1039.1 c 0,15.6 -3.37,28.99 -10.1,40.16 -7.89,13.51 -19.14,20.26 -33.76,20.26 -15.11,0 -26.61,-6.75 -34.5,-20.26 -6.73,-11.17 -10.09,-24.79 -10.09,-40.84 0,-15.62 3.36,-28.99 10.09,-40.182 8.14,-13.492 19.49,-20.242 34.15,-20.242 14.37,0 25.63,6.871 33.76,20.598 6.98,11.406 10.45,24.906 10.45,40.506 z m 39.02,1.23 c 0,-26.01 -7.43,-47.365 -22.3,-64.072 -15.56,-17.195 -36.21,-25.781 -61.98,-25.781 -24.86,0 -44.63,8.238 -59.39,24.73 -14.72,16.477 -22.09,37.263 -22.09,62.333 0,26.23 7.57,47.7 22.79,64.42 15.22,16.72 35.69,25.07 61.46,25.07 24.86,0 44.8,-8.24 59.91,-24.72 14.38,-16.02 21.6,-36.68 21.6,-61.98" /><path
         id="path42"
         style="fill:#ffffff;fill-opacity:1;fill-rule:nonzero;stroke:none"
         d="m 2256.07,1123.55 -52.94,-169.237 h -34.46 l -21.95,73.487 c -5.57,18.33 -10.09,36.56 -13.6,54.67 h -0.66 c -3.26,-18.58 -7.79,-36.81 -13.61,-54.67 l -23.31,-73.487 h -34.85 l -49.78,169.237 h 38.67 l 19.14,-80.44 c 4.63,-19.03 8.45,-37.14 11.5,-54.317 h 0.67 c 2.8,14.147 7.43,32.147 13.95,53.977 l 24.01,80.78 h 30.65 l 22.99,-79.05 c 5.58,-19.26 10.1,-37.84 13.57,-55.707 h 1.05 c 2.56,17.407 6.38,35.967 11.5,55.707 l 20.54,79.05 h 36.92" /><path
         id="path44"
         style="fill:#ffffff;fill-opacity:1;fill-rule:nonzero;stroke:none"
         d="m 2451.1,954.313 h -37.62 v 96.917 c 0,29.87 -11.36,44.81 -34.11,44.81 -11.15,0 -20.19,-4.11 -27.17,-12.33 -6.94,-8.22 -10.44,-17.89 -10.44,-29.01 V 954.313 h -37.62 v 120.827 c 0,14.87 -0.46,30.99 -1.37,48.41 h 33.06 l 1.75,-26.44 h 1.05 c 4.39,8.2 10.91,15.02 19.5,20.42 10.2,6.33 21.59,9.5 34.11,9.5 15.81,0 28.92,-5.1 39.37,-15.32 13.01,-12.53 19.49,-31.23 19.49,-56.06 V 954.313" /><path
         id="path46"
         style="fill:#ffffff;fill-opacity:1;fill-rule:nonzero;stroke:none"
         d="m 2554.86,954.313 h -37.59 v 246.897 h 37.59 V 954.313" /><path
         id="path48"
         style="fill:#ffffff;fill-opacity:1;fill-rule:nonzero;stroke:none"
         d="m 2737.3,1039.1 c 0,15.6 -3.37,28.99 -10.1,40.16 -7.85,13.51 -19.14,20.26 -33.72,20.26 -15.15,0 -26.65,-6.75 -34.5,-20.26 -6.73,-11.17 -10.1,-24.79 -10.1,-40.84 0,-15.62 3.37,-28.99 10.1,-40.182 8.13,-13.492 19.49,-20.242 34.15,-20.242 14.37,0 25.59,6.871 33.72,20.598 7.01,11.406 10.45,24.906 10.45,40.506 z m 39.05,1.23 c 0,-26.01 -7.43,-47.365 -22.29,-64.072 -15.57,-17.195 -36.25,-25.781 -61.98,-25.781 -24.9,0 -44.67,8.238 -59.39,24.73 -14.73,16.477 -22.09,37.263 -22.09,62.333 0,26.23 7.57,47.7 22.79,64.42 15.21,16.72 35.68,25.07 61.42,25.07 24.89,0 44.8,-8.24 59.95,-24.72 14.37,-16.02 21.59,-36.68 21.59,-61.98" /><path
         id="path50"
         style="fill:#ffffff;fill-opacity:1;fill-rule:nonzero;stroke:none"
         d="m 2919.39,1012.47 v 26.11 c -41.51,0.7 -62.26,-10.68 -62.26,-34.12 0,-8.831 2.38,-15.44 7.22,-19.858 4.84,-4.399 11.01,-6.606 18.37,-6.606 8.28,0 15.99,2.609 23,7.832 7.08,5.227 11.43,11.887 13.04,20.022 0.42,1.86 0.63,4.06 0.63,6.62 z m 39.06,-58.157 h -33.8 l -2.81,19.496 h -1.04 c -11.57,-15.551 -28.05,-23.332 -49.44,-23.332 -15.98,0 -28.89,5.113 -38.63,15.336 -8.84,9.273 -13.25,20.769 -13.25,34.467 0,20.66 8.62,36.44 25.94,47.36 17.32,10.9 41.65,16.25 72.99,16.02 v 3.14 c 0,22.28 -11.71,33.42 -35.13,33.42 -16.69,0 -31.41,-4.18 -44.1,-12.53 l -7.65,24.72 c 15.71,9.75 35.13,14.62 58.06,14.62 44.24,0 66.4,-23.33 66.4,-70 v -62.331 c 0,-16.933 0.85,-30.414 2.46,-40.386" /><path
         id="path52"
         style="fill:#ffffff;fill-opacity:1;fill-rule:nonzero;stroke:none"
         d="m 3133.25,1025.69 v 28.22 c 0,4.88 -0.35,8.82 -1.06,11.84 -2.1,9.04 -6.66,16.65 -13.6,22.8 -7.01,6.15 -15.42,9.24 -25.17,9.24 -14.02,0 -25.03,-5.58 -33.09,-16.72 -8,-11.15 -12.07,-25.42 -12.07,-42.83 0,-16.72 3.86,-30.31 11.57,-40.756 8.14,-11.129 19.15,-16.703 32.89,-16.703 12.34,0 22.23,4.649 29.73,13.918 7.22,8.591 10.8,18.931 10.8,30.991 z m 38.98,-71.377 h -33.37 l -1.76,27.167 h -1.05 c -10.66,-20.664 -28.82,-31.003 -54.34,-31.003 -20.4,0 -37.37,8.007 -50.83,24.031 -13.46,16.019 -20.2,36.792 -20.2,62.332 0,27.4 7.3,49.57 21.95,66.51 14.16,15.79 31.55,23.68 52.24,23.68 22.71,0 38.63,-7.66 47.68,-22.98 h 0.7 v 97.16 h 37.65 V 999.926 c 0,-16.481 0.42,-31.676 1.33,-45.613" /><path
         id="path54"
         style="fill:#ffffff;fill-opacity:1;fill-rule:nonzero;stroke:none"
         d="m 3455.01,1039.1 c 0,15.6 -3.36,28.99 -10.09,40.16 -7.93,13.51 -19.15,20.26 -33.8,20.26 -15.08,0 -26.58,-6.75 -34.5,-20.26 -6.73,-11.17 -10.09,-24.79 -10.09,-40.84 0,-15.62 3.36,-28.99 10.09,-40.182 8.14,-13.492 19.49,-20.242 34.15,-20.242 14.37,0 25.66,6.871 33.79,20.598 6.95,11.406 10.45,24.906 10.45,40.506 z m 38.98,1.23 c 0,-26.01 -7.43,-47.365 -22.29,-64.072 -15.57,-17.195 -36.18,-25.781 -61.98,-25.781 -24.82,0 -44.6,8.238 -59.39,24.73 -14.73,16.477 -22.09,37.263 -22.09,62.333 0,26.23 7.57,47.7 22.79,64.42 15.22,16.72 35.69,25.07 61.49,25.07 24.82,0 44.81,-8.24 59.88,-24.72 14.37,-16.02 21.59,-36.68 21.59,-61.98" /><path
         id="path56"
         style="fill:#ffffff;fill-opacity:1;fill-rule:nonzero;stroke:none"
         d="m 3696.28,954.313 h -37.58 v 96.917 c 0,29.87 -11.36,44.81 -34.15,44.81 -11.15,0 -20.19,-4.11 -27.13,-12.33 -6.95,-8.22 -10.45,-17.89 -10.45,-29.01 V 954.313 h -37.65 v 120.827 c 0,14.87 -0.42,30.99 -1.33,48.41 h 33.02 l 1.75,-26.44 h 1.06 c 4.41,8.2 10.93,15.02 19.49,20.42 10.23,6.33 21.59,9.5 34.14,9.5 15.78,0 28.89,-5.1 39.34,-15.32 13.04,-12.53 19.49,-31.23 19.49,-56.06 V 954.313" /><path
         id="path58"
         style="fill:#ffffff;fill-opacity:1;fill-rule:nonzero;stroke:none"
         d="m 3949.47,1095.35 h -41.43 v -82.19 c 0,-20.898 7.36,-31.344 21.94,-31.344 6.73,0 12.34,0.579 16.76,1.75 l 0.98,-28.554 c -7.43,-2.785 -17.18,-4.188 -29.24,-4.188 -14.86,0 -26.43,4.539 -34.78,13.582 -8.41,9.067 -12.55,24.262 -12.55,45.614 v 85.33 h -24.75 v 28.2 h 24.75 v 31 l 36.89,11.13 v -42.13 h 41.43 v -28.2" /><path
         id="path60"
         style="fill:#ffffff;fill-opacity:1;fill-rule:nonzero;stroke:none"
         d="m 4148.67,954.313 h -37.65 v 96.217 c 0,30.35 -11.36,45.51 -34.08,45.51 -17.45,0 -29.37,-8.81 -35.9,-26.4 -1.12,-3.7 -1.75,-8.22 -1.75,-13.55 V 954.313 h -37.58 v 246.897 h 37.58 v -102 h 0.7 c 11.85,18.54 28.82,27.82 50.84,27.82 15.56,0 28.46,-5.1 38.7,-15.32 12.76,-12.76 19.14,-31.69 19.14,-56.76 V 954.313" /><path
         id="path62"
         style="fill:#ffffff;fill-opacity:1;fill-rule:nonzero;stroke:none"
         d="m 4318.21,1056.68 c 0.28,11.15 -2.17,20.79 -7.29,28.91 -6.52,10.45 -16.47,15.67 -29.94,15.67 -12.27,0 -22.29,-5.1 -29.94,-15.32 -6.24,-8.14 -9.95,-17.88 -11.14,-29.26 z m 35.9,-9.74 c 0,-6.73 -0.48,-12.41 -1.4,-17.06 H 4239.9 c 0.49,-16.72 5.89,-29.48 16.33,-38.298 9.54,-7.906 21.88,-11.852 36.96,-11.852 16.68,0 31.9,2.665 45.64,8.008 l 5.89,-26.117 c -16.06,-6.957 -34.92,-10.445 -56.79,-10.445 -26.23,0 -46.84,7.711 -61.78,23.156 -15,15.441 -22.43,36.158 -22.43,62.158 0,25.54 6.94,46.79 20.89,63.73 14.59,18.11 34.29,27.16 59.18,27.16 24.33,0 42.84,-9.05 55.32,-27.16 10.03,-14.4 15,-32.16 15,-53.28" /></g></g></svg>