<?xml version="1.0" encoding="UTF-8" standalone="no"?>
<svg
   xmlns:dc="http://purl.org/dc/elements/1.1/"
   xmlns:cc="http://creativecommons.org/ns#"
   xmlns:rdf="http://www.w3.org/1999/02/22-rdf-syntax-ns#"
   xmlns:svg="http://www.w3.org/2000/svg"
   xmlns="http://www.w3.org/2000/svg"
   viewBox="0 0 1122.52 793.70001"
   height="793.70001"
   width="1122.52"
   xml:space="preserve"
   id="svg2"
   version="1.1"><metadata
     id="metadata8"><rdf:RDF><cc:Work
         rdf:about=""><dc:format>image/svg+xml</dc:format><dc:type
           rdf:resource="http://purl.org/dc/dcmitype/StillImage" /></cc:Work></rdf:RDF></metadata><defs
     id="defs6"><clipPath
       id="clipPath18"
       clipPathUnits="userSpaceOnUse"><path
         id="path16"
         d="M 0,595.275 H 841.89 V 0 H 0 Z" /></clipPath><linearGradient
       id="linearGradient104"
       spreadMethod="pad"
       gradientTransform="matrix(-59.646206,58.952183,-59.646149,-58.95224,258.55566,257.85449)"
       gradientUnits="userSpaceOnUse"
       y2="0"
       x2="1"
       y1="0"
       x1="0"><stop
         id="stop92"
         offset="0"
         style="stop-opacity:1;stop-color:#00a0ff" /><stop
         id="stop94"
         offset="0.0066"
         style="stop-opacity:1;stop-color:#00a1ff" /><stop
         id="stop96"
         offset="0.2601"
         style="stop-opacity:1;stop-color:#00beff" /><stop
         id="stop98"
         offset="0.5122"
         style="stop-opacity:1;stop-color:#00d2ff" /><stop
         id="stop100"
         offset="0.7604"
         style="stop-opacity:1;stop-color:#00dfff" /><stop
         id="stop102"
         offset="1"
         style="stop-opacity:1;stop-color:#00e3ff" /></linearGradient><linearGradient
       id="linearGradient128"
       spreadMethod="pad"
       gradientTransform="matrix(-85.995308,-7.4e-6,7.5e-6,-84.994774,301.33154,297.52002)"
       gradientUnits="userSpaceOnUse"
       y2="0"
       x2="1"
       y1="0"
       x1="0"><stop
         id="stop120"
         offset="0"
         style="stop-opacity:1;stop-color:#ffe000" /><stop
         id="stop122"
         offset="0.4087"
         style="stop-opacity:1;stop-color:#ffbd00" /><stop
         id="stop124"
         offset="0.7754"
         style="stop-opacity:1;stop-color:#ffa500" /><stop
         id="stop126"
         offset="1"
         style="stop-opacity:1;stop-color:#ff9c00" /></linearGradient><linearGradient
       id="linearGradient148"
       spreadMethod="pad"
       gradientTransform="matrix(-80.862564,79.921753,-80.862564,-79.921753,239.66309,276.26855)"
       gradientUnits="userSpaceOnUse"
       y2="0"
       x2="1"
       y1="0"
       x1="0"><stop
         id="stop144"
         offset="0"
         style="stop-opacity:1;stop-color:#ff3a44" /><stop
         id="stop146"
         offset="1"
         style="stop-opacity:1;stop-color:#c31162" /></linearGradient><linearGradient
       id="linearGradient174"
       spreadMethod="pad"
       gradientTransform="matrix(36.115265,35.694748,-36.114933,35.695072,177.36816,257.18848)"
       gradientUnits="userSpaceOnUse"
       y2="0"
       x2="1"
       y1="0"
       x1="0"><stop
         id="stop164"
         offset="0"
         style="stop-opacity:1;stop-color:#32a071" /><stop
         id="stop166"
         offset="0.0685"
         style="stop-opacity:1;stop-color:#2da771" /><stop
         id="stop168"
         offset="0.4762"
         style="stop-opacity:1;stop-color:#15cf74" /><stop
         id="stop170"
         offset="0.8009"
         style="stop-opacity:1;stop-color:#06e775" /><stop
         id="stop172"
         offset="1"
         style="stop-opacity:1;stop-color:#00f076" /></linearGradient><clipPath
       id="clipPath184"
       clipPathUnits="userSpaceOnUse"><path
         id="path182"
         d="M 0,595.275 H 841.89 V 0 H 0 Z" /></clipPath><clipPath
       id="clipPath192"
       clipPathUnits="userSpaceOnUse"><path
         id="path190"
         d="M 145.541,402.9 H 696.413 V 192.138 H 145.541 Z" /></clipPath><clipPath
       id="clipPath196"
       clipPathUnits="userSpaceOnUse"><path
         id="path194"
         d="M 145.541,402.9 H 696.413 V 192.138 H 145.541 Z" /></clipPath><clipPath
       id="clipPath200"
       clipPathUnits="userSpaceOnUse"><path
         id="path198"
         d="M 180.269,368.885 H 619.916 V 198.699 H 180.269 Z" /></clipPath><mask
       id="mask202"
       height="1"
       width="1"
       y="0"
       x="0"
       maskUnits="userSpaceOnUse"><g
         id="g222"><g
           id="g220"
           clip-path="url(#clipPath192)"><path
             id="path204"
             style="fill:#000000;fill-opacity:1;fill-rule:nonzero;stroke:none"
             d="M 145.541,402.9 H 696.413 V 192.137 H 145.541 Z" /><g
             id="g218"><g
               id="g206" /><g
               id="g216"><g
                 id="g214"
                 clip-path="url(#clipPath196)"><g
                   id="g212"><g
                     id="g210"
                     clip-path="url(#clipPath200)"><path
                       id="path208"
                       style="fill:#000000;fill-opacity:0.19999701;fill-rule:nonzero;stroke:none"
                       d="M 180.269,368.885 H 619.916 V 198.699 H 180.269 Z" /></g></g></g></g></g></g></g></mask><clipPath
       id="clipPath230"
       clipPathUnits="userSpaceOnUse"><path
         id="path228"
         d="M 145.541,402.9 H 696.413 V 192.138 H 145.541 Z" /></clipPath><clipPath
       id="clipPath234"
       clipPathUnits="userSpaceOnUse"><path
         id="path232"
         d="M 145.541,192.138 H 696.413 V 402.901 H 145.541 Z" /></clipPath><clipPath
       id="clipPath238"
       clipPathUnits="userSpaceOnUse"><path
         id="path236"
         d="M 0,0 H 124 V 48 H 0 Z" /></clipPath><pattern
       id="pattern248"
       height="48"
       width="124"
       y="0"
       x="0"
       patternUnits="userSpaceOnUse"
       patternTransform="matrix(4.44254,0,0,-4.39085,25688.8,-32305.2)"><g
         id="g246"><g
           id="g244"
           clip-path="url(#clipPath238)"><g
             id="g242"
             transform="translate(29.625,20.6948)"><path
               id="path240"
               style="fill:#000000;fill-opacity:1;fill-rule:nonzero;stroke:none"
               d="m 0,0 -11.613,-6.597 c -0.649,-0.371 -1.231,-0.344 -1.606,-0.008 l -0.058,-0.063 0.058,-0.058 c 0.375,-0.336 0.957,-0.36 1.606,0.011 L 0.074,-0.074 0,0 Z" /></g></g></g></pattern><clipPath
       id="clipPath266"
       clipPathUnits="userSpaceOnUse"><path
         id="path264"
         d="M 145.541,402.9 H 696.413 V 192.138 H 145.541 Z" /></clipPath><clipPath
       id="clipPath270"
       clipPathUnits="userSpaceOnUse"><path
         id="path268"
         d="M 145.541,402.9 H 696.413 V 192.138 H 145.541 Z" /></clipPath><clipPath
       id="clipPath274"
       clipPathUnits="userSpaceOnUse"><path
         id="path272"
         d="M 180.269,368.885 H 619.916 V 198.699 H 180.269 Z" /></clipPath><mask
       id="mask276"
       height="1"
       width="1"
       y="0"
       x="0"
       maskUnits="userSpaceOnUse"><g
         id="g296"><g
           id="g294"
           clip-path="url(#clipPath266)"><path
             id="path278"
             style="fill:#000000;fill-opacity:1;fill-rule:nonzero;stroke:none"
             d="M 145.541,402.9 H 696.413 V 192.137 H 145.541 Z" /><g
             id="g292"><g
               id="g280" /><g
               id="g290"><g
                 id="g288"
                 clip-path="url(#clipPath270)"><g
                   id="g286"><g
                     id="g284"
                     clip-path="url(#clipPath274)"><path
                       id="path282"
                       style="fill:#000000;fill-opacity:0.119995;fill-rule:nonzero;stroke:none"
                       d="M 180.269,368.885 H 619.916 V 198.699 H 180.269 Z" /></g></g></g></g></g></g></g></mask><clipPath
       id="clipPath304"
       clipPathUnits="userSpaceOnUse"><path
         id="path302"
         d="M 145.541,402.9 H 696.413 V 192.138 H 145.541 Z" /></clipPath><clipPath
       id="clipPath308"
       clipPathUnits="userSpaceOnUse"><path
         id="path306"
         d="M 145.541,192.138 H 696.413 V 402.901 H 145.541 Z" /></clipPath><clipPath
       id="clipPath312"
       clipPathUnits="userSpaceOnUse"><path
         id="path310"
         d="M 0,0 H 124 V 48 H 0 Z" /></clipPath><pattern
       id="pattern322"
       height="48"
       width="124"
       y="0"
       x="0"
       patternUnits="userSpaceOnUse"
       patternTransform="matrix(4.44254,0,0,-4.39085,25688.8,-32305.2)"><g
         id="g320"><g
           id="g318"
           clip-path="url(#clipPath312)"><g
             id="g316"
             transform="translate(16.3481,14.145)"><path
               id="path314"
               style="fill:#000000;fill-opacity:1;fill-rule:nonzero;stroke:none"
               d="m 0,0 c -0.235,0.246 -0.371,0.628 -0.371,1.125 l 0,-0.118 C -0.371,0.511 -0.235,0.128 0,-0.118 L 0.058,-0.055 0,0 Z" /></g></g></g></pattern><clipPath
       id="clipPath340"
       clipPathUnits="userSpaceOnUse"><path
         id="path338"
         d="M 145.541,402.9 H 696.413 V 192.138 H 145.541 Z" /></clipPath><clipPath
       id="clipPath344"
       clipPathUnits="userSpaceOnUse"><path
         id="path342"
         d="M 145.541,402.9 H 696.413 V 192.138 H 145.541 Z" /></clipPath><clipPath
       id="clipPath348"
       clipPathUnits="userSpaceOnUse"><path
         id="path346"
         d="M 180.269,368.885 H 619.916 V 198.699 H 180.269 Z" /></clipPath><mask
       id="mask350"
       height="1"
       width="1"
       y="0"
       x="0"
       maskUnits="userSpaceOnUse"><g
         id="g370"><g
           id="g368"
           clip-path="url(#clipPath340)"><path
             id="path352"
             style="fill:#000000;fill-opacity:1;fill-rule:nonzero;stroke:none"
             d="M 145.541,402.9 H 696.413 V 192.137 H 145.541 Z" /><g
             id="g366"><g
               id="g354" /><g
               id="g364"><g
                 id="g362"
                 clip-path="url(#clipPath344)"><g
                   id="g360"><g
                     id="g358"
                     clip-path="url(#clipPath348)"><path
                       id="path356"
                       style="fill:#000000;fill-opacity:0.119995;fill-rule:nonzero;stroke:none"
                       d="M 180.269,368.885 H 619.916 V 198.699 H 180.269 Z" /></g></g></g></g></g></g></g></mask><clipPath
       id="clipPath378"
       clipPathUnits="userSpaceOnUse"><path
         id="path376"
         d="M 145.541,402.9 H 696.413 V 192.138 H 145.541 Z" /></clipPath><clipPath
       id="clipPath382"
       clipPathUnits="userSpaceOnUse"><path
         id="path380"
         d="M 145.541,192.138 H 696.413 V 402.901 H 145.541 Z" /></clipPath><clipPath
       id="clipPath386"
       clipPathUnits="userSpaceOnUse"><path
         id="path384"
         d="M 0,0 H 124 V 48 H 0 Z" /></clipPath><pattern
       id="pattern396"
       height="48"
       width="124"
       y="0"
       x="0"
       patternUnits="userSpaceOnUse"
       patternTransform="matrix(4.44254,0,0,-4.39085,25688.8,-32305.2)"><g
         id="g394"><g
           id="g392"
           clip-path="url(#clipPath386)"><g
             id="g390"
             transform="translate(33.6128,22.9609)"><path
               id="path388"
               style="fill:#000000;fill-opacity:1;fill-rule:nonzero;stroke:none"
               d="M 0,0 -3.988,-2.266 -3.914,-2.34 0,-0.117 C 0.559,0.199 0.836,0.617 0.836,1.039 0.789,0.66 0.504,0.289 0,0" /></g></g></g></pattern><clipPath
       id="clipPath414"
       clipPathUnits="userSpaceOnUse"><path
         id="path412"
         d="M 145.541,402.9 H 696.413 V 192.138 H 145.541 Z" /></clipPath><clipPath
       id="clipPath418"
       clipPathUnits="userSpaceOnUse"><path
         id="path416"
         d="M 145.541,402.9 H 696.413 V 192.138 H 145.541 Z" /></clipPath><clipPath
       id="clipPath422"
       clipPathUnits="userSpaceOnUse"><path
         id="path420"
         d="M 180.269,368.885 H 619.916 V 198.699 H 180.269 Z" /></clipPath><mask
       id="mask424"
       height="1"
       width="1"
       y="0"
       x="0"
       maskUnits="userSpaceOnUse"><g
         id="g444"><g
           id="g442"
           clip-path="url(#clipPath414)"><path
             id="path426"
             style="fill:#000000;fill-opacity:1;fill-rule:nonzero;stroke:none"
             d="M 145.541,402.9 H 696.413 V 192.137 H 145.541 Z" /><g
             id="g440"><g
               id="g428" /><g
               id="g438"><g
                 id="g436"
                 clip-path="url(#clipPath418)"><g
                   id="g434"><g
                     id="g432"
                     clip-path="url(#clipPath422)"><path
                       id="path430"
                       style="fill:#000000;fill-opacity:0.25;fill-rule:nonzero;stroke:none"
                       d="M 180.269,368.885 H 619.916 V 198.699 H 180.269 Z" /></g></g></g></g></g></g></g></mask><clipPath
       id="clipPath452"
       clipPathUnits="userSpaceOnUse"><path
         id="path450"
         d="M 145.541,402.9 H 696.413 V 192.138 H 145.541 Z" /></clipPath></defs><g
     transform="matrix(1.3333333,0,0,-1.3333333,0,793.7)"
     id="g10"><g
       id="g12"><g
         clip-path="url(#clipPath18)"
         id="g14"><g
           transform="translate(643.105,227.2646)"
           id="g20"><path
             id="path22"
             style="fill:#000000;fill-opacity:1;fill-rule:nonzero;stroke:none"
             d="m 0,0 h -444.257 c -9.767,0 -17.769,7.908 -17.769,17.564 v 105.38 c 0,9.657 8.002,17.565 17.769,17.565 H 0 c 9.768,0 17.77,-7.908 17.77,-17.565 V 17.564 C 17.77,7.908 9.768,0 0,0" /></g><g
           transform="translate(643.105,367.7739)"
           id="g24"><path
             id="path26"
             style="fill:#a6a6a6;fill-opacity:1;fill-rule:nonzero;stroke:none"
             d="m 0,0 h -444.257 c -9.767,0 -17.769,-7.908 -17.769,-17.565 v -105.38 c 0,-9.656 8.002,-17.564 17.769,-17.564 H 0 c 9.768,0 17.77,7.908 17.77,17.564 v 105.38 C 17.77,-7.908 9.768,0 0,0 m 0,-2.815 c 8.227,0 14.92,-6.617 14.92,-14.75 v -105.38 c 0,-8.133 -6.693,-14.75 -14.92,-14.75 h -444.257 c -8.226,0 -14.919,6.617 -14.919,14.75 v 105.38 c 0,8.133 6.693,14.75 14.919,14.75 L 0,-2.815" /></g><g
           transform="translate(349.6035,331.7886)"
           id="g28"><path
             id="path30"
             style="fill:#ffffff;fill-opacity:1;fill-rule:nonzero;stroke:none"
             d="m 0,0 c 0,-2.933 -0.89,-5.28 -2.638,-7.032 -2.016,-2.078 -4.637,-3.123 -7.846,-3.123 -3.072,0 -5.693,1.063 -7.843,3.157 -2.153,2.126 -3.23,4.734 -3.23,7.853 0,3.124 1.077,5.73 3.23,7.839 2.15,2.112 4.771,3.175 7.843,3.175 1.526,0 2.984,-0.311 4.376,-0.893 1.385,-0.582 2.514,-1.371 3.331,-2.348 L -4.633,6.776 c -1.426,1.665 -3.369,2.486 -5.851,2.486 -2.241,0 -4.183,-0.776 -5.831,-2.334 -1.631,-1.561 -2.448,-3.587 -2.448,-6.073 0,-2.482 0.817,-4.525 2.448,-6.087 1.648,-1.544 3.59,-2.333 5.831,-2.333 2.375,0 4.376,0.789 5.952,2.351 1.038,1.031 1.63,2.455 1.786,4.272 h -7.738 V 1.593 H -0.159 C -0.038,1.045 0,0.516 0,0" /></g><g
           transform="translate(349.6035,331.7886)"
           id="g32"><path
             id="path34"
             style="fill:none;stroke:#ffffff;stroke-width:0.16;stroke-linecap:butt;stroke-linejoin:miter;stroke-miterlimit:10;stroke-dasharray:none;stroke-opacity:1"
             d="m 0,0 c 0,-2.933 -0.89,-5.28 -2.638,-7.032 -2.016,-2.078 -4.637,-3.123 -7.846,-3.123 -3.072,0 -5.693,1.063 -7.843,3.157 -2.153,2.126 -3.23,4.734 -3.23,7.853 0,3.124 1.077,5.73 3.23,7.839 2.15,2.112 4.771,3.175 7.843,3.175 1.526,0 2.984,-0.311 4.376,-0.893 1.385,-0.582 2.514,-1.371 3.331,-2.348 L -4.633,6.776 c -1.426,1.665 -3.369,2.486 -5.851,2.486 -2.241,0 -4.183,-0.776 -5.831,-2.334 -1.631,-1.561 -2.448,-3.587 -2.448,-6.073 0,-2.482 0.817,-4.525 2.448,-6.087 1.648,-1.544 3.59,-2.333 5.831,-2.333 2.375,0 4.376,0.789 5.952,2.351 1.038,1.031 1.63,2.455 1.786,4.272 h -7.738 V 1.593 H -0.159 C -0.038,1.045 0,0.516 0,0 Z" /></g><g
           transform="translate(365.981,340.5903)"
           id="g36"><path
             id="path38"
             style="fill:#ffffff;fill-opacity:1;fill-rule:nonzero;stroke:none"
             d="m 0,0 h -9.698 v -6.676 h 8.746 v -2.538 h -8.746 v -6.675 H 0 v -2.587 H -12.44 V 2.583 l 12.44,0 z" /></g><g
           transform="translate(365.981,340.5903)"
           id="g40"><path
             id="path42"
             style="fill:none;stroke:#ffffff;stroke-width:0.16;stroke-linecap:butt;stroke-linejoin:miter;stroke-miterlimit:10;stroke-dasharray:none;stroke-opacity:1"
             d="m 0,0 h -9.698 v -6.676 h 8.746 v -2.538 h -8.746 v -6.675 H 0 v -2.587 H -12.44 V 2.583 l 12.44,0 z" /></g><g
           transform="translate(377.542,322.1143)"
           id="g44"><path
             id="path46"
             style="fill:#ffffff;fill-opacity:1;fill-rule:nonzero;stroke:none"
             d="m 0,0 h -2.746 v 18.476 h -5.948 v 2.583 H 5.952 V 18.476 H 0 Z" /></g><g
           transform="translate(377.542,322.1143)"
           id="g48"><path
             id="path50"
             style="fill:none;stroke:#ffffff;stroke-width:0.16;stroke-linecap:butt;stroke-linejoin:miter;stroke-miterlimit:10;stroke-dasharray:none;stroke-opacity:1"
             d="m 0,0 h -2.746 v 18.476 h -5.948 v 2.583 H 5.952 V 18.476 H 0 Z" /></g><path
           id="path52"
           style="fill:#ffffff;fill-opacity:1;fill-rule:nonzero;stroke:#ffffff;stroke-width:0.16;stroke-linecap:butt;stroke-linejoin:miter;stroke-miterlimit:10;stroke-dasharray:none;stroke-opacity:1"
           d="m 394.096,343.173 h 2.738 v -21.059 h -2.738 z" /><g
           transform="translate(408.9844,322.1143)"
           id="g54"><path
             id="path56"
             style="fill:#ffffff;fill-opacity:1;fill-rule:nonzero;stroke:none"
             d="m 0,0 h -2.721 v 18.476 h -5.973 v 2.583 H 5.973 V 18.476 H 0 Z" /></g><g
           transform="translate(408.9844,322.1143)"
           id="g58"><path
             id="path60"
             style="fill:none;stroke:#ffffff;stroke-width:0.16;stroke-linecap:butt;stroke-linejoin:miter;stroke-miterlimit:10;stroke-dasharray:none;stroke-opacity:1"
             d="m 0,0 h -2.721 v 18.476 h -5.973 v 2.583 H 5.973 V 18.476 H 0 Z" /></g><g
           transform="translate(429.0806,326.5913)"
           id="g62"><path
             id="path64"
             style="fill:#ffffff;fill-opacity:1;fill-rule:nonzero;stroke:none"
             d="m 0,0 c 1.582,-1.579 3.504,-2.368 5.796,-2.368 2.275,0 4.218,0.789 5.779,2.368 1.578,1.576 2.379,3.601 2.379,6.052 0,2.455 -0.801,4.481 -2.379,6.056 -1.561,1.576 -3.504,2.369 -5.779,2.369 C 3.504,14.477 1.582,13.684 0,12.108 -1.579,10.533 -2.379,8.507 -2.379,6.052 -2.379,3.601 -1.579,1.576 0,0 m 13.607,-1.766 c -2.101,-2.129 -4.706,-3.192 -7.811,-3.192 -3.123,0 -5.727,1.063 -7.828,3.192 -2.095,2.126 -3.141,4.733 -3.141,7.818 0,3.089 1.046,5.697 3.141,7.823 2.101,2.128 4.705,3.191 7.828,3.191 3.089,0 5.692,-1.063 7.794,-3.209 2.112,-2.144 3.158,-4.733 3.158,-7.805 0,-3.085 -1.046,-5.692 -3.141,-7.818" /></g><g
           transform="translate(429.0806,326.5913)"
           id="g66"><path
             id="path68"
             style="fill:none;stroke:#ffffff;stroke-width:0.16;stroke-linecap:butt;stroke-linejoin:miter;stroke-miterlimit:10;stroke-dasharray:none;stroke-opacity:1"
             d="m 0,0 c 1.582,-1.579 3.504,-2.368 5.796,-2.368 2.275,0 4.218,0.789 5.779,2.368 1.578,1.576 2.379,3.601 2.379,6.052 0,2.455 -0.801,4.481 -2.379,6.056 -1.561,1.576 -3.504,2.369 -5.779,2.369 C 3.504,14.477 1.582,13.684 0,12.108 -1.579,10.533 -2.379,8.507 -2.379,6.052 -2.379,3.601 -1.579,1.576 0,0 Z m 13.607,-1.766 c -2.101,-2.129 -4.706,-3.192 -7.811,-3.192 -3.123,0 -5.727,1.063 -7.828,3.192 -2.095,2.126 -3.141,4.733 -3.141,7.818 0,3.089 1.046,5.697 3.141,7.823 2.101,2.128 4.705,3.191 7.828,3.191 3.089,0 5.692,-1.063 7.794,-3.209 2.112,-2.144 3.158,-4.733 3.158,-7.805 0,-3.085 -1.046,-5.692 -3.141,-7.818 z" /></g><g
           transform="translate(449.6792,322.1143)"
           id="g70"><path
             id="path72"
             style="fill:#ffffff;fill-opacity:1;fill-rule:nonzero;stroke:none"
             d="M 0,0 V 21.059 H 3.334 L 13.693,4.682 h 0.118 l -0.118,4.05 v 12.327 h 2.739 V 0 h -2.86 L 2.725,17.188 H 2.604 L 2.725,13.123 V 0 Z" /></g><g
           transform="translate(449.6792,322.1143)"
           id="g74"><path
             id="path76"
             style="fill:none;stroke:#ffffff;stroke-width:0.16;stroke-linecap:butt;stroke-linejoin:miter;stroke-miterlimit:10;stroke-dasharray:none;stroke-opacity:1"
             d="M 0,0 V 21.059 H 3.334 L 13.693,4.682 h 0.118 l -0.118,4.05 v 12.327 h 2.739 V 0 h -2.86 L 2.725,17.188 H 2.604 L 2.725,13.123 V 0 Z" /></g><path
           id="path78"
           style="fill:#ffffff;fill-opacity:1;fill-rule:nonzero;stroke:none"
           d="m 561.125,262.391 h 6.647 v 43.911 h -6.647 z m 59.748,28.094 -7.618,-19.037 h -0.228 l -7.877,19.037 h -7.147 l 11.834,-26.602 -6.752,-14.798 h 6.926 l 18.237,41.4 z M 583.25,267.384 c -2.168,0 -5.191,1.062 -5.191,3.719 0,3.4 3.768,4.702 7.029,4.702 2.919,0 4.287,-0.634 6.059,-1.476 -0.519,-4.064 -4.062,-6.945 -7.897,-6.945 m 0.799,24.063 c -4.788,0 -9.77,-2.091 -11.817,-6.723 l 5.883,-2.438 c 1.263,2.438 3.593,3.227 6.052,3.227 3.442,0 6.928,-2.039 6.98,-5.647 v -0.461 c -1.198,0.686 -3.767,1.7 -6.925,1.7 -6.336,0 -12.79,-3.445 -12.79,-9.878 0,-5.886 5.191,-9.674 11.021,-9.674 4.46,0 6.922,1.991 8.469,4.303 h 0.225 v -3.392 h 6.402 v 16.841 c 0,7.787 -5.882,12.142 -13.5,12.142 m -40.974,-6.311 h -9.439 v 15.058 h 9.439 c 4.948,0 7.773,-4.062 7.773,-7.528 0,-3.396 -2.825,-7.53 -7.773,-7.53 m -0.173,21.166 h -15.897 v -43.911 h 6.631 v 16.637 h 9.266 c 7.361,0 14.58,5.266 14.58,13.638 0,8.369 -7.236,13.636 -14.58,13.636 m -86.649,-38.936 c -4.58,0 -8.413,3.788 -8.413,9.006 0,5.267 3.833,9.107 8.413,9.107 4.516,0 8.075,-3.84 8.075,-9.107 0,-5.218 -3.559,-9.006 -8.075,-9.006 m 7.604,20.668 h -0.225 c -1.492,1.748 -4.338,3.327 -7.946,3.327 -7.569,0 -14.49,-6.568 -14.49,-14.989 0,-8.372 6.921,-14.889 14.49,-14.889 3.608,0 6.454,1.593 7.946,3.394 h 0.225 v -2.144 c 0,-5.712 -3.088,-8.78 -8.067,-8.78 -4.062,0 -6.582,2.898 -7.621,5.335 l -5.779,-2.385 c 1.666,-3.962 6.076,-8.833 13.4,-8.833 7.791,0 14.366,4.529 14.366,15.557 v 26.827 h -6.299 z m 10.883,-25.643 h 6.648 v 43.911 h -6.648 z m 16.432,14.494 c -0.172,5.761 4.53,8.711 7.895,8.711 2.639,0 4.879,-1.302 5.623,-3.168 z m 20.617,4.975 c -1.25,3.341 -5.101,9.501 -12.948,9.501 -7.776,0 -14.247,-6.052 -14.247,-14.94 0,-8.369 6.406,-14.938 14.992,-14.938 6.946,0 10.953,4.183 12.6,6.621 l -5.151,3.393 c -1.722,-2.482 -4.063,-4.131 -7.449,-4.131 -3.362,0 -5.775,1.524 -7.319,4.53 l 20.217,8.264 -0.699,1.7 z m -161.026,4.924 v -6.35 h 15.339 c -0.45,-3.549 -1.648,-6.157 -3.487,-7.974 -2.24,-2.195 -5.727,-4.633 -11.852,-4.633 -9.442,0 -16.834,7.53 -16.834,16.861 0,9.333 7.392,16.863 16.834,16.863 5.104,0 8.82,-1.973 11.558,-4.529 l 4.529,4.474 c -3.837,3.618 -8.936,6.399 -16.087,6.399 -12.946,0 -23.825,-10.413 -23.825,-23.207 0,-12.792 10.879,-23.205 23.825,-23.205 6.994,0 12.25,2.265 16.385,6.517 4.231,4.183 5.55,10.068 5.55,14.819 0,1.475 -0.125,2.832 -0.346,3.965 z m 39.379,-19.418 c -4.584,0 -8.538,3.737 -8.538,9.055 0,5.388 3.954,9.058 8.538,9.058 4.581,0 8.521,-3.67 8.521,-9.058 0,-5.318 -3.94,-9.055 -8.521,-9.055 m 0,23.995 c -8.365,0 -15.169,-6.277 -15.169,-14.94 0,-8.594 6.804,-14.938 15.169,-14.938 8.358,0 15.165,6.344 15.165,14.938 0,8.663 -6.807,14.94 -15.165,14.94 m 33.09,-23.995 c -4.58,0 -8.521,3.737 -8.521,9.055 0,5.388 3.941,9.058 8.521,9.058 4.581,0 8.539,-3.67 8.539,-9.058 0,-5.318 -3.958,-9.055 -8.539,-9.055 m 0,23.995 c -8.348,0 -15.165,-6.277 -15.165,-14.94 0,-8.594 6.817,-14.938 15.165,-14.938 8.365,0 15.186,6.344 15.186,14.938 0,8.663 -6.821,14.94 -15.186,14.94" /></g></g><g
       id="g80"><g
         id="g82"><g
           id="g88"><g
             id="g90"><path
               id="path106"
               style="fill:url(#linearGradient104);stroke:none"
               d="m 218.165,341.29 c -1.042,-1.08 -1.647,-2.76 -1.647,-4.938 v 0 -77.683 c 0,-2.178 0.605,-3.861 1.647,-4.942 v 0 l 0.26,-0.235 44.042,43.512 v 1.029 l -44.042,43.513 z" /></g></g></g></g><g
       id="g108"><g
         id="g110"><g
           id="g116"><g
             id="g118"><path
               id="path130"
               style="fill:url(#linearGradient128);stroke:none"
               d="m 262.467,298.033 v -1.029 l 14.664,-14.51 0.346,0.187 17.389,9.76 c 4.961,2.794 4.961,7.362 0,10.135 v 0 l -17.389,9.778 -0.328,0.191 z" /></g></g></g></g><g
       id="g132"><g
         id="g134"><g
           id="g140"><g
             id="g142"><path
               id="path150"
               style="fill:url(#linearGradient148);stroke:none"
               d="m 218.165,253.727 c 1.648,-1.709 4.336,-1.918 7.393,-0.203 v 0 l 51.919,29.157 -15.01,14.836 z" /></g></g></g></g><g
       id="g152"><g
         id="g154"><g
           id="g160"><g
             id="g162"><path
               id="path176"
               style="fill:url(#linearGradient174);stroke:none"
               d="m 218.165,341.29 44.302,-43.773 15.01,14.837 -51.919,29.161 c -1.432,0.794 -2.783,1.171 -3.984,1.171 v 0 c -1.363,0 -2.533,-0.485 -3.409,-1.396" /></g></g></g></g><g
       id="g178"><g
         clip-path="url(#clipPath184)"
         id="g180"><g
           id="g186"><g
             id="g188" /><g
             mask="url(#mask202)"
             id="g224"><g
               id="g226" /><g
               id="g258"><g
                 id="g256"
                 clip-path="url(#clipPath230)"><g
                   id="g254"><g
                     id="g252"
                     clip-path="url(#clipPath234)"><path
                       id="path250"
                       style="fill:url(#pattern248);fill-opacity:1;fill-rule:nonzero;stroke:none"
                       d="M 145.541,192.138 H 696.413 V 402.901 H 145.541 Z" /></g></g></g></g></g></g><g
           id="g260"><g
             id="g262" /><g
             mask="url(#mask276)"
             id="g298"><g
               id="g300" /><g
               id="g332"><g
                 id="g330"
                 clip-path="url(#clipPath304)"><g
                   id="g328"><g
                     id="g326"
                     clip-path="url(#clipPath308)"><path
                       id="path324"
                       style="fill:url(#pattern322);fill-opacity:1;fill-rule:nonzero;stroke:none"
                       d="M 145.541,192.138 H 696.413 V 402.901 H 145.541 Z" /></g></g></g></g></g></g><g
           id="g334"><g
             id="g336" /><g
             mask="url(#mask350)"
             id="g372"><g
               id="g374" /><g
               id="g406"><g
                 id="g404"
                 clip-path="url(#clipPath378)"><g
                   id="g402"><g
                     id="g400"
                     clip-path="url(#clipPath382)"><path
                       id="path398"
                       style="fill:url(#pattern396);fill-opacity:1;fill-rule:nonzero;stroke:none"
                       d="M 145.541,192.138 H 696.413 V 402.901 H 145.541 Z" /></g></g></g></g></g></g><g
           id="g408"><g
             id="g410" /><g
             mask="url(#mask424)"
             id="g446"><g
               id="g448" /><g
               id="g456"><g
                 id="g454"
                 clip-path="url(#clipPath452)" /></g></g></g></g></g></g></svg>